<svg xmlns="http://www.w3.org/2000/svg" viewBox="0 0 1280 720">
  <defs>
    <linearGradient id="sky" x1="0" y1="0" x2="1" y2="1">
      <stop offset="0" stop-color="#70c7f2"/>
      <stop offset=".55" stop-color="#184d79"/>
      <stop offset="1" stop-color="#07131f"/>
    </linearGradient>
    <filter id="soft"><feGaussianBlur stdDeviation="16"/></filter>
  </defs>
  <rect width="1280" height="720" fill="url(#sky)"/>
  <path d="M0 520C160 430 260 485 420 416c210-90 340-70 500-22 140 42 230 23 360-50v376H0Z" fill="#0e314d" opacity=".82"/>
  <path d="M0 610c170-84 315-65 460-103 190-50 295-112 496-70 156 32 244 18 324-22v305H0Z" fill="#081827" opacity=".75"/>
  <g filter="url(#soft)" opacity=".72" fill="#ffffff">
    <ellipse cx="190" cy="190" rx="190" ry="36"/>
    <ellipse cx="780" cy="155" rx="260" ry="34"/>
    <ellipse cx="1050" cy="315" rx="180" ry="32"/>
    <ellipse cx="540" cy="420" rx="230" ry="30"/>
  </g>
</svg>
